<svg xmlns="http://www.w3.org/2000/svg" width="32" height="32"><path style="line-height:normal;text-indent:0;text-align:start;text-decoration-line:none;text-decoration-style:solid;text-decoration-color:#000;text-transform:none;block-progression:tb;white-space:normal;isolation:auto;mix-blend-mode:normal;solid-color:#000;solid-opacity:1" d="M4 3v1h12.492v2c-.78 0-1.422.612-1.486 1.377a.5.5 0 0 0-.014.117V8h-.5a.5.5 0 1 0 0 1h7a.5.5 0 1 0 0-1h-.5v-.467a.5.5 0 0 0 0-.033v-.006a.5.5 0 0 0-.013-.123A1.503 1.503 0 0 0 19.492 6V4H28V3H4zm13.492 1h1v2h-1V4zm-1 3h3c.284 0 .497.212.5.494V8h-4v-.467a.5.5 0 0 0 0-.033v-.006a.488.488 0 0 1 .5-.494zM17.5 9.984v1h1v-1h-1zm-2.377.026-.48.877.877.48.48-.877-.877-.48zm5.713 0-.877.48.48.877.877-.48-.48-.877zm-6.674 1.754-.48.877.877.48.48-.877-.877-.48zm7.635 0-.877.48.48.877.877-.48-.48-.877zm-4.297.22v1h1v-1h-1zm-4.299 1.534-.48.877.877.48.48-.877-.877-.48zm9.557 0-.877.48.48.877.877-.48-.48-.877zm-5.258.466v1h1v-1h-1zm-4.045 2.008c-.522 0-.987-.01-1.492.162-.505.171-.994.511-1.58 1.11l-2.988 2.795-4.827 1.546c-.376.121-.752.317-1.05.631a1.854 1.854 0 0 0-.504 1.278v1.877a.5.5 0 0 0 0 .222v.455C1.014 27.082 1.73 28 2.72 28h2.478c.081.373.252.708.48 1H1v1h30v-1h-4.69c.23-.292.4-.627.481-1h2.479c.99 0 1.707-.919 1.707-1.932v-.422a.5.5 0 0 0 0-.294v-3.436c0-.507-.17-.978-.47-1.338-.298-.36-.752-.612-1.259-.592h-2.232l-3.274-2.857.035.035c-.727-.772-1.594-1.172-2.52-1.172h-7.802zm0 .996h2.549v2.078c0 .555-.363.93-.707.93H8.924l2.166-2.025.008-.012c.527-.538.873-.757 1.185-.863.313-.106.646-.108 1.172-.108zm3.549 0h1.992v2.078c0 1.014.717 1.93 1.707 1.93h6.135v-.012H29.289c.16-.01.311.066.45.233.137.166.238.422.238.699V25h-.866a.5.5 0 1 0 0 1h.866v.068c0 .555-.363.932-.707.932H26.8c-.228-1.166-1.277-2.045-2.52-2.045-1.24 0-2.288.872-2.522 2.031L10.234 27c-.229-1.166-1.28-2.045-2.523-2.045-1.244 0-2.293.88-2.522 2.045H2.721c-.344 0-.707-.377-.707-.932V26h.875a.5.5 0 1 0 0-1h-.875v-1.486c0-.27.082-.436.228-.59.146-.154.373-.283.631-.365l4.871-1.563h7.553c.99 0 1.707-.916 1.707-1.93v-2.078zm2.992 0h1.262c.658 0 1.205.236 1.79.858l.018.02 2.444 2.13h-4.807c-.344 0-.707-.375-.707-.93v-2.078zm-5.432 5.016a.5.5 0 0 0 .051 1h1.38a.5.5 0 1 0 0-1h-1.38a.5.5 0 0 0-.05 0zm4.842 0a.5.5 0 0 0 .051 1h1.38a.5.5 0 1 0 0-1h-1.38a.5.5 0 0 0-.05 0zM7.711 25.955c.882 0 1.572.68 1.572 1.522 0 .84-.69 1.52-1.572 1.52-.882 0-1.57-.68-1.57-1.52 0-.842.688-1.522 1.57-1.522zm16.568 0c.882 0 1.57.68 1.57 1.522 0 .84-.688 1.52-1.57 1.52-.882 0-1.572-.68-1.572-1.52 0-.842.69-1.522 1.572-1.522zm-2.52 2.031c.08.379.257.718.489 1.014H9.742a2.47 2.47 0 0 0 .485-1l11.533-.014z" color="#000" enable-background="accumulate" font-family="sans-serif" font-weight="400" overflow="visible"/></svg>