<svg xmlns="http://www.w3.org/2000/svg" width="163.839" height="163.839" fill-rule="evenodd" clip-rule="evenodd" image-rendering="optimizeQuality" shape-rendering="geometricPrecision" text-rendering="geometricPrecision" viewBox="0 0 4335 4335" id="taxi"><path d="M1403 4231l0 -214c-382,-27 -724,-76 -967,-146l0 360c0,65 84,104 153,104l661 0c70,0 153,-39 153,-104zm741 -3875l-44 -141 -45 141 89 0zm-1598 1662c3,-115 7,-229 15,-340l-241 0c-149,0 -227,182 -120,290 31,30 73,50 120,50l226 0zm3466 0c144,0 230,-177 118,-292 -30,-30 -72,-48 -118,-48l-238 0c8,111 12,225 15,340l223 0zm-1112 -1453l-84 -456c-14,-69 -80,-109 -154,-109l-970 0c-74,0 -141,40 -154,109l-85 455 482 -16c114,-2 187,-1 232,1 46,-2 119,-3 233,-1l500 17zm-538 -135c-17,28 -61,3 -44,-26l75 -130 -75 -131c-17,-29 27,-54 44,-25l60 105 61 -105c17,-29 61,-4 44,25l-75 131 75 130c17,29 -27,54 -44,26l-61 -106 -60 106zm-148 -21c10,32 -39,47 -49,16l-5 -18 -121 0 -5 18c-10,31 -58,16 -49,-16l90 -286c8,-24 41,-24 49,0l90 286zm-377 -252l0 260c0,33 -50,33 -50,0l0 -260 -89 0c-33,0 -33,-51 0,-51l228 0c33,0 33,51 0,51l-89 0zm793 260l0 -286c0,-34 51,-34 51,0l0 286c0,33 -51,33 -51,0zm971 660c-107,-250 -304,-427 -671,-459 -311,-16 -527,-23 -762,-19l-1 0 -710 16c-390,18 -607,191 -723,462 -71,166 -104,365 -120,575l-1 5c-9,118 -13,239 -16,361l3141 0c-3,-119 -7,-237 -16,-351l-2 -25c-17,-207 -49,-402 -119,-565zm-2308 -246l1749 0c122,0 218,84 236,200l114 733c0,54 -59,90 -111,90l-2247 -2c-50,-8 -98,-46 -90,-99l113 -722c18,-116 114,-200 236,-200zm1560 2370l-1371 0c0,33 -11,95 41,95l1289 0c52,0 41,-62 41,-95zm0 -140l-1371 0 0 89 1371 0 0 -89zm-12 -134l0 0zm-29 -12l-1289 0c-52,0 -41,62 -41,95l1371 0c0,-33 6,-66 -12,-83 -7,-8 -17,-12 -29,-12zm-1652 -12c-193,-193 -523,-55 -523,216 0,272 330,409 523,217 119,-120 119,-314 0,-433zm-339 339l0 0zm122 -296c153,0 232,187 123,296 -68,68 -178,68 -245,0 -110,-109 -31,-296 122,-296zm-86 260l0 0zm209 -87c0,-34 -14,-64 -36,-86 -77,-77 -209,-23 -209,86 0,34 13,65 36,87 76,77 209,22 209,-87zm2542 -216c-192,-193 -523,-55 -523,216 0,272 331,409 523,217 120,-120 120,-314 0,-433zm-339 339l0 0zm123 -296c153,0 232,187 122,296 -67,68 -177,68 -245,0 -109,-109 -30,-296 123,-296zm-87 260l0 0zm209 -87c0,-34 -14,-64 -36,-86 -76,-77 -209,-23 -209,86 0,34 14,65 36,87 77,77 209,22 209,-87zm716 237c22,-497 53,-1212 -468,-1288l-3189 0c-521,76 -490,791 -468,1288 4,102 8,195 7,273 25,66 122,123 271,173l38 12c244,75 604,126 1008,154l3 0c235,16 485,25 735,25 251,0 501,-9 737,-25l2 0c403,-28 763,-79 1008,-154l38 -12c149,-50 246,-107 271,-173 -1,-78 3,-171 7,-273zm-1353 -465l0 0zm-65 456l-1289 0c-51,0 -92,-41 -92,-92l0 -299c0,-51 41,-92 92,-92l1289 0c26,0 48,10 65,27 17,16 27,39 27,65l0 299c0,51 -41,92 -92,92zm-1869 -585c317,0 477,386 253,610 -225,224 -610,64 -610,-253 0,-197 160,-357 357,-357zm2701 610c-224,224 -609,64 -609,-253 0,-197 159,-357 357,-357 317,0 476,386 252,610zm255 499c-243,70 -585,119 -967,146l0 214c0,65 83,104 153,104l661 0c69,0 153,-39 153,-104l0 -360z"></path></svg>